<mxfile host="app.diagrams.net" modified="2024-03-15T10:21:10.651Z" agent="Mozilla/5.0 (Windows NT 10.0; Win64; x64) AppleWebKit/537.36 (KHTML, like Gecko) Chrome/122.0.0.0 Safari/537.36" etag="vWkay60VxMOdJb4wDKFY" version="24.0.6" type="google">
  <diagram name="Page-1" id="RirG0vXY_NXSw0IorEf_">
    <mxGraphModel grid="1" page="1" gridSize="10" guides="1" tooltips="1" connect="1" arrows="1" fold="1" pageScale="1" pageWidth="850" pageHeight="1100" background="none" math="0" shadow="0">
      <root>
        <mxCell id="0" />
        <mxCell id="1" style="" parent="0" />
        <mxCell id="9sGdI8RwoFem3HhXq2zG-29" value="" style="rounded=0;whiteSpace=wrap;html=1;dashed=1;fillColor=none;" vertex="1" parent="1">
          <mxGeometry x="90" y="320" width="660" height="190" as="geometry" />
        </mxCell>
        <mxCell id="9sGdI8RwoFem3HhXq2zG-20" value="" style="rounded=0;whiteSpace=wrap;html=1;dashed=1;fillColor=none;" vertex="1" parent="1">
          <mxGeometry x="100" y="190" width="370" height="100" as="geometry" />
        </mxCell>
        <mxCell id="9sGdI8RwoFem3HhXq2zG-1" value="" style="rounded=0;whiteSpace=wrap;html=1;" vertex="1" parent="1">
          <mxGeometry x="100" y="100" width="120" height="60" as="geometry" />
        </mxCell>
        <mxCell id="9sGdI8RwoFem3HhXq2zG-2" value="Test Driver" style="text;html=1;align=center;verticalAlign=middle;whiteSpace=wrap;rounded=0;" vertex="1" parent="1">
          <mxGeometry x="110" y="115" width="100" height="30" as="geometry" />
        </mxCell>
        <mxCell id="9sGdI8RwoFem3HhXq2zG-3" value="" style="rounded=0;whiteSpace=wrap;html=1;" vertex="1" parent="1">
          <mxGeometry x="640" y="100" width="120" height="60" as="geometry" />
        </mxCell>
        <mxCell id="9sGdI8RwoFem3HhXq2zG-4" value="Consumer" style="text;html=1;align=center;verticalAlign=middle;whiteSpace=wrap;rounded=0;" vertex="1" parent="1">
          <mxGeometry x="670" y="115" width="60" height="30" as="geometry" />
        </mxCell>
        <mxCell id="9sGdI8RwoFem3HhXq2zG-6" value="" style="endArrow=none;dashed=1;html=1;dashPattern=1 3;strokeWidth=2;rounded=0;entryX=0.5;entryY=1;entryDx=0;entryDy=0;" edge="1" parent="1" target="9sGdI8RwoFem3HhXq2zG-1">
          <mxGeometry width="50" height="50" relative="1" as="geometry">
            <mxPoint x="160" y="560" as="sourcePoint" />
            <mxPoint x="450" y="220" as="targetPoint" />
          </mxGeometry>
        </mxCell>
        <mxCell id="9sGdI8RwoFem3HhXq2zG-7" value="" style="endArrow=none;dashed=1;html=1;dashPattern=1 3;strokeWidth=2;rounded=0;entryX=0.5;entryY=1;entryDx=0;entryDy=0;" edge="1" parent="1" source="9sGdI8RwoFem3HhXq2zG-18" target="9sGdI8RwoFem3HhXq2zG-3">
          <mxGeometry width="50" height="50" relative="1" as="geometry">
            <mxPoint x="700" y="480" as="sourcePoint" />
            <mxPoint x="450" y="320" as="targetPoint" />
          </mxGeometry>
        </mxCell>
        <mxCell id="9sGdI8RwoFem3HhXq2zG-8" value="" style="rounded=0;whiteSpace=wrap;html=1;" vertex="1" parent="1">
          <mxGeometry x="380" y="100" width="120" height="60" as="geometry" />
        </mxCell>
        <mxCell id="9sGdI8RwoFem3HhXq2zG-9" value="Provider" style="text;html=1;align=center;verticalAlign=middle;whiteSpace=wrap;rounded=0;" vertex="1" parent="1">
          <mxGeometry x="390" y="115" width="100" height="30" as="geometry" />
        </mxCell>
        <mxCell id="9sGdI8RwoFem3HhXq2zG-10" value="" style="endArrow=none;dashed=1;html=1;dashPattern=1 3;strokeWidth=2;rounded=0;entryX=0.5;entryY=1;entryDx=0;entryDy=0;" edge="1" parent="1">
          <mxGeometry width="50" height="50" relative="1" as="geometry">
            <mxPoint x="440" y="562" as="sourcePoint" />
            <mxPoint x="440" y="158" as="targetPoint" />
          </mxGeometry>
        </mxCell>
        <mxCell id="9sGdI8RwoFem3HhXq2zG-11" value="" style="rounded=0;whiteSpace=wrap;html=1;" vertex="1" parent="1">
          <mxGeometry x="150" y="180" width="20" height="340" as="geometry" />
        </mxCell>
        <mxCell id="9sGdI8RwoFem3HhXq2zG-15" value="" style="rounded=0;whiteSpace=wrap;html=1;" vertex="1" parent="1">
          <mxGeometry x="430" y="180" width="20" height="340" as="geometry" />
        </mxCell>
        <mxCell id="9sGdI8RwoFem3HhXq2zG-16" value="" style="endArrow=classic;html=1;rounded=0;exitX=1.1;exitY=0.222;exitDx=0;exitDy=0;exitPerimeter=0;entryX=0;entryY=0.222;entryDx=0;entryDy=0;entryPerimeter=0;" edge="1" parent="1" source="9sGdI8RwoFem3HhXq2zG-11" target="9sGdI8RwoFem3HhXq2zG-15">
          <mxGeometry width="50" height="50" relative="1" as="geometry">
            <mxPoint x="180.01" y="240" as="sourcePoint" />
            <mxPoint x="450" y="320" as="targetPoint" />
          </mxGeometry>
        </mxCell>
        <mxCell id="9sGdI8RwoFem3HhXq2zG-17" value="Create Assets&lt;br&gt;1...initial" style="text;html=1;align=center;verticalAlign=middle;whiteSpace=wrap;rounded=0;" vertex="1" parent="1">
          <mxGeometry x="210" y="200" width="190" height="30" as="geometry" />
        </mxCell>
        <mxCell id="9sGdI8RwoFem3HhXq2zG-19" value="" style="endArrow=none;dashed=1;html=1;dashPattern=1 3;strokeWidth=2;rounded=0;entryX=0.5;entryY=1;entryDx=0;entryDy=0;" edge="1" parent="1" target="9sGdI8RwoFem3HhXq2zG-18">
          <mxGeometry width="50" height="50" relative="1" as="geometry">
            <mxPoint x="700" y="560" as="sourcePoint" />
            <mxPoint x="700" y="160" as="targetPoint" />
          </mxGeometry>
        </mxCell>
        <mxCell id="9sGdI8RwoFem3HhXq2zG-18" value="" style="rounded=0;whiteSpace=wrap;html=1;" vertex="1" parent="1">
          <mxGeometry x="690" y="305" width="20" height="215" as="geometry" />
        </mxCell>
        <mxCell id="9sGdI8RwoFem3HhXq2zG-22" value="Setup Phase(setup.jmx)" style="text;html=1;align=center;verticalAlign=middle;whiteSpace=wrap;rounded=0;" vertex="1" parent="1">
          <mxGeometry x="180" y="267" width="140" height="30" as="geometry" />
        </mxCell>
        <mxCell id="9sGdI8RwoFem3HhXq2zG-30" value="Measurement phase&lt;br&gt;(measurement_interval.jmx)" style="text;html=1;align=center;verticalAlign=middle;whiteSpace=wrap;rounded=0;" vertex="1" parent="1">
          <mxGeometry x="185" y="480" width="130" height="30" as="geometry" />
        </mxCell>
        <mxCell id="9sGdI8RwoFem3HhXq2zG-23" value="" style="endArrow=classic;html=1;rounded=0;exitX=0;exitY=0.25;exitDx=0;exitDy=0;" edge="1" parent="1">
          <mxGeometry width="50" height="50" relative="1" as="geometry">
            <mxPoint x="690" y="438" as="sourcePoint" />
            <mxPoint x="450" y="439" as="targetPoint" />
          </mxGeometry>
        </mxCell>
        <mxCell id="9sGdI8RwoFem3HhXq2zG-24" value="Use Assets&lt;br&gt;1..n" style="text;html=1;align=center;verticalAlign=middle;whiteSpace=wrap;rounded=0;" vertex="1" parent="1">
          <mxGeometry x="530" y="400" width="110" height="30" as="geometry" />
        </mxCell>
        <mxCell id="9sGdI8RwoFem3HhXq2zG-25" value="" style="endArrow=classic;html=1;rounded=0;exitX=1;exitY=0.75;exitDx=0;exitDy=0;entryX=0;entryY=0.75;entryDx=0;entryDy=0;" edge="1" parent="1">
          <mxGeometry width="50" height="50" relative="1" as="geometry">
            <mxPoint x="170" y="406" as="sourcePoint" />
            <mxPoint x="430" y="406" as="targetPoint" />
          </mxGeometry>
        </mxCell>
        <mxCell id="9sGdI8RwoFem3HhXq2zG-26" value="Create Assets&lt;br&gt;initial+1..n" style="text;html=1;align=center;verticalAlign=middle;whiteSpace=wrap;rounded=0;" vertex="1" parent="1">
          <mxGeometry x="250" y="372" width="110" height="30" as="geometry" />
        </mxCell>
        <mxCell id="9sGdI8RwoFem3HhXq2zG-32" value="mid" style="" parent="0" />
        <mxCell id="9sGdI8RwoFem3HhXq2zG-33" value="" style="rounded=0;whiteSpace=wrap;html=1;fillColor=none;" vertex="1" parent="9sGdI8RwoFem3HhXq2zG-32">
          <mxGeometry x="113" y="336" width="620" height="120" as="geometry" />
        </mxCell>
        <mxCell id="9sGdI8RwoFem3HhXq2zG-34" value="" style="rounded=0;whiteSpace=wrap;html=1;fillColor=default;" vertex="1" parent="9sGdI8RwoFem3HhXq2zG-32">
          <mxGeometry x="113" y="336" width="50" height="30" as="geometry" />
        </mxCell>
        <mxCell id="9sGdI8RwoFem3HhXq2zG-35" value="loop" style="text;html=1;align=center;verticalAlign=middle;whiteSpace=wrap;rounded=0;" vertex="1" parent="9sGdI8RwoFem3HhXq2zG-32">
          <mxGeometry x="118" y="336" width="40" height="30" as="geometry" />
        </mxCell>
        <mxCell id="9sGdI8RwoFem3HhXq2zG-37" value="" style="endArrow=classic;html=1;rounded=0;exitX=0;exitY=0.25;exitDx=0;exitDy=0;" edge="1" parent="9sGdI8RwoFem3HhXq2zG-32">
          <mxGeometry width="50" height="50" relative="1" as="geometry">
            <mxPoint x="690" y="379" as="sourcePoint" />
            <mxPoint x="450" y="380" as="targetPoint" />
          </mxGeometry>
        </mxCell>
        <mxCell id="9sGdI8RwoFem3HhXq2zG-38" value="Check for Assets&lt;br&gt;1..n" style="text;html=1;align=center;verticalAlign=middle;whiteSpace=wrap;rounded=0;" vertex="1" parent="9sGdI8RwoFem3HhXq2zG-32">
          <mxGeometry x="530" y="340" width="110" height="30" as="geometry" />
        </mxCell>
        <mxCell id="9sGdI8RwoFem3HhXq2zG-31" value="top" style="" parent="0" />
      </root>
    </mxGraphModel>
  </diagram>
</mxfile>
